<?xml version="1.0" encoding="UTF-8" standalone="no"?>
<!-- Created with Inkscape (http://www.inkscape.org/) -->

<svg
   xmlns:dc="http://purl.org/dc/elements/1.1/"
   xmlns:cc="http://creativecommons.org/ns#"
   xmlns:rdf="http://www.w3.org/1999/02/22-rdf-syntax-ns#"
   xmlns:svg="http://www.w3.org/2000/svg"
   xmlns="http://www.w3.org/2000/svg"
   xmlns:sodipodi="http://sodipodi.sourceforge.net/DTD/sodipodi-0.dtd"
   xmlns:inkscape="http://www.inkscape.org/namespaces/inkscape"
   width="48px"
   height="48px"
   id="svg3014"
   version="1.1"
   inkscape:version="0.48.5 r10040"
   sodipodi:docname="New document 3">
  <defs
     id="defs3016" />
  <sodipodi:namedview
     id="base"
     pagecolor="#ffffff"
     bordercolor="#666666"
     borderopacity="1.0"
     inkscape:pageopacity="0.0"
     inkscape:pageshadow="2"
     inkscape:zoom="7"
     inkscape:cx="24"
     inkscape:cy="24"
     inkscape:current-layer="layer1"
     showgrid="true"
     inkscape:grid-bbox="true"
     inkscape:document-units="px"
     inkscape:window-width="1920"
     inkscape:window-height="1018"
     inkscape:window-x="1672"
     inkscape:window-y="-8"
     inkscape:window-maximized="1" />
  <metadata
     id="metadata3019">
    <rdf:RDF>
      <cc:Work
         rdf:about="">
        <dc:format>image/svg+xml</dc:format>
        <dc:type
           rdf:resource="http://purl.org/dc/dcmitype/StillImage" />
        <dc:title></dc:title>
      </cc:Work>
    </rdf:RDF>
  </metadata>
  <g
     id="layer1"
     inkscape:label="Layer 1"
     inkscape:groupmode="layer">
    <g
       style="fill:#157efb;stroke:none"
       id="icon-76-document-file-html"
       transform="matrix(1.2003981,0,0,1.1946888,2.6591493,-1.7706004)">
      <path
         inkscape:connector-curvature="0"
         d="m 19,26 0,2.002578 C 19,29.109075 18.105724,30 17.002578,30 L 1.9974219,30 C 0.89092539,30 0,29.101288 0,27.99267 L 0,5.0073299 C 0,3.8983383 0.8992496,3 2.0085302,3 L 12,3 12,9.0018986 C 12,10.113294 12.898081,11 14.005919,11 L 19,11 l 0,2 c -0.09023,8.627667 0.03487,6.90158 0,13 z M 13,3 13,8.9970707 C 13,9.5509732 13.450975,10 13.990778,10 L 19,10 z M 4,15.992017 c -4.1434819,17.111913 -2.0717409,8.555957 0,0 z"
         id="document-file-html"
         style="fill:#157efb;fill-opacity:1"
         sodipodi:nodetypes="csssssscsscccsccsscc" />
    </g>
  </g>
</svg>
