<?xml version="1.0" encoding="UTF-8" standalone="no"?>
<!-- Created with Inkscape (http://www.inkscape.org/) -->

<svg
   xmlns:dc="http://purl.org/dc/elements/1.1/"
   xmlns:cc="http://creativecommons.org/ns#"
   xmlns:rdf="http://www.w3.org/1999/02/22-rdf-syntax-ns#"
   xmlns:svg="http://www.w3.org/2000/svg"
   xmlns="http://www.w3.org/2000/svg"
   xmlns:sodipodi="http://sodipodi.sourceforge.net/DTD/sodipodi-0.dtd"
   xmlns:inkscape="http://www.inkscape.org/namespaces/inkscape"
   width="48"
   height="48"
   id="svg2"
   version="1.1"
   inkscape:version="0.48.5 r10040"
   sodipodi:docname="RAW Export Icon.svg">
  <defs
     id="defs4">
    <path
       id="path-1"
       d="M0,11 C0,4.92486745 4.92486745,0 11,0 C17.0751325,0 22,4.92486745 22,11 C22,17.0751325 17.0751325,22 11,22 C4.92486745,22 0,17.0751325 0,11 L0,11 Z M21,11 C21,5.47715225 16.5228478,1 11,1 C5.47715225,1 1,5.47715225 1,11 C1,16.5228478 5.47715225,21 11,21 C16.5228478,21 21,16.5228478 21,11 L21,11 Z M11.25,7.5 C11.940356,7.5 12.5,6.94035595 12.5,6.25 C12.5,5.55964405 11.940356,5 11.25,5 C10.559644,5 10,5.55964405 10,6.25 C10,6.94035595 10.559644,7.5 11.25,7.5 L11.25,7.5 Z M8.5,8.5 L8.5,9.5 L10,9.5 L10,16.5 L8.5,16.5 L8.5,17.5 L14,17.5 L14,16.5 L12.5,16.5 L12.5,8.5 L8.5,8.5 L8.5,8.5 Z" />
  </defs>
  <sodipodi:namedview
     id="base"
     pagecolor="#ffffff"
     bordercolor="#666666"
     borderopacity="1.0"
     inkscape:pageopacity="0.0"
     inkscape:pageshadow="2"
     inkscape:zoom="5.89868"
     inkscape:cx="28.879499"
     inkscape:cy="9.8459639"
     inkscape:document-units="px"
     inkscape:current-layer="layer1"
     showgrid="false"
     inkscape:window-width="1920"
     inkscape:window-height="1018"
     inkscape:window-x="1672"
     inkscape:window-y="-8"
     inkscape:window-maximized="1" />
  <metadata
     id="metadata7">
    <rdf:RDF>
      <cc:Work
         rdf:about="">
        <dc:format>image/svg+xml</dc:format>
        <dc:type
           rdf:resource="http://purl.org/dc/dcmitype/StillImage" />
        <dc:title></dc:title>
      </cc:Work>
    </rdf:RDF>
  </metadata>
  <g
     inkscape:label="Layer 1"
     inkscape:groupmode="layer"
     id="layer1"
     transform="translate(0,-1004.3622)">
    <g
       style="fill:#157efb;stroke:none"
       id="icon-76-document-file-html"
       transform="matrix(1.2003981,0,0,1.1946888,2.6591493,1002.5916)">
      <path
         inkscape:connector-curvature="0"
         d="m 19,26 0,2.002578 C 19,29.109075 18.105724,30 17.002578,30 L 1.9974219,30 C 0.89092539,30 0,29.101288 0,27.99267 L 0,5.0073299 C 0,3.8983383 0.8992496,3 2.0085302,3 L 12,3 12,9.0018986 C 12,10.113294 12.898081,11 14.005919,11 L 19,11 19,13 6.0068483,13 C 4.3462119,13 3,14.342264 3,15.998786 l 0,7.002428 C 3,24.657398 4.3359915,26 6.0068483,26 L 19,26 l 0,0 0,0 z M 13,3 13,8.9970707 C 13,9.5509732 13.450975,10 13.990778,10 L 19,10 13,3 13,3 z M 6.0073299,14 C 4.8987122,14 4,14.900176 4,15.992017 l 0,7.015966 C 4,24.108144 4.8983383,25 6.0073299,25 L 28.99267,25 C 30.101288,25 31,24.099824 31,23.007983 l 0,-7.015966 C 31,14.891856 30.101662,14 28.99267,14 l -22.9853401,0 0,0 z M 29,22 l 0,1 -5,0 0,-7 1,0 0,6 4,0 0,0 z m -15,-5 0,6 1,0 0,-6 2,0 0,-1 -5,0 0,1 2,0 0,0 z m -4,2 0,-3 1,0 0,7 -1,0 0,-3 -3,0 0,3 -1,0 0,-7 1,0 0,3 3,0 0,0 z m 10.5,0 -1.5,-3 -0.5,0 -0.5,0 0,7 1,0 0,-5 1,2 0.5,0 0.5,0 1,-2 0,5 1,0 0,-7 -0.5,0 -0.5,0 -1.5,3 0,0 z"
         id="document-file-html"
         style="fill:#157efb;fill-opacity:1" />
      <rect
         style="fill:#157efb;fill-opacity:1;stroke:none"
         id="rect3094"
         width="33.451065"
         height="13.189277"
         x="10.513191"
         y="22.386044"
         transform="matrix(0.70610927,0,0,0.60427996,-1.87765,1.9041466)" />
      <text
         xml:space="preserve"
         style="font-size:8.44639969px;font-style:normal;font-weight:normal;line-height:125%;letter-spacing:0px;word-spacing:0px;fill:#000000;fill-opacity:1;stroke:none;font-family:Sans"
         x="5.4824047"
         y="24.95829"
         id="text3864"
         sodipodi:linespacing="125%"
         transform="scale(1.1307023,0.88440609)"><tspan
           sodipodi:role="line"
           id="tspan3866"
           x="5.4824047"
           y="24.95829"
           style="font-style:normal;font-variant:normal;font-weight:normal;font-stretch:normal;fill:#ffffff;font-family:Sans;-inkscape-font-specification:Sans">PNG</tspan></text>
    </g>
    <path
       style="fill:#51aa2d;stroke:#000000;stroke-width:1.44000006000000000px;stroke-linecap:butt;stroke-linejoin:miter;stroke-opacity:1;fill-opacity:1"
       d="m 23.496605,1049.0392 c -3.197464,5.1219 -0.887417,-11.416 13.801685,-11.2637 l 0.448311,-3.9609 7.448267,7.5302 -8.266398,6.7542 -0.08516,-4.7934 c -0.0151,-0.8502 -7.749467,-3.2325 -13.346707,5.7336 z"
       id="path2999"
       inkscape:connector-curvature="0"
       sodipodi:nodetypes="sccccss" />
  </g>
</svg>
